<svg width="248" height="199" viewBox="0 0 248 199" fill="none" xmlns="http://www.w3.org/2000/svg">
<path d="M21.6836 174.351C19.3405 174.251 17.2357 174.043 15.3691 173.725C13.5026 173.427 11.6956 172.941 9.94824 172.266C8.2207 171.571 6.76123 170.707 5.56982 169.674C4.39827 168.622 3.41536 167.282 2.62109 165.653C1.84668 164.025 1.37012 162.139 1.19141 159.994C1.19141 159.617 1.38997 159.398 1.78711 159.339C1.90625 159.379 2.10482 159.398 2.38281 159.398C4.03092 159.398 6.53288 159.359 9.88867 159.279C13.2445 159.2 15.7464 159.16 17.3945 159.16C17.8115 159.16 18.1392 159.299 18.3774 159.577C18.6157 159.835 18.8044 160.163 18.9434 160.56C19.1022 160.937 19.2809 161.325 19.4795 161.722C19.6979 162.099 20.0553 162.427 20.5518 162.705C21.068 162.963 21.7233 163.092 22.5176 163.092C23.4906 163.092 24.3444 162.824 25.0791 162.288C25.8337 161.732 26.2109 160.987 26.2109 160.054C26.2109 159.438 25.8932 158.872 25.2578 158.356C24.6224 157.84 23.7785 157.423 22.7261 157.105C21.6935 156.767 20.7007 156.489 19.7476 156.271C18.8143 156.033 17.8512 155.834 16.8584 155.675C15.8656 155.497 15.2897 155.387 15.1309 155.348C10.3057 154.037 6.83073 152.409 4.70605 150.463C2.60124 148.517 1.54883 145.856 1.54883 142.48C1.54883 140.098 1.98568 137.963 2.85938 136.077C3.73307 134.17 4.87484 132.622 6.28467 131.43C7.6945 130.219 9.36247 129.216 11.2886 128.422C13.2147 127.608 15.1606 127.042 17.1265 126.724C19.0923 126.387 21.1276 126.218 23.2324 126.218C28.8122 126.218 33.2601 127.25 36.5762 129.315C37.7874 130.527 38.6711 131.45 39.2271 132.085C39.8029 132.701 40.349 133.426 40.8652 134.26C41.4014 135.094 41.7687 135.918 41.9673 136.732C42.1857 137.526 42.3346 138.509 42.4141 139.681L41.3418 140.753C37.2712 140.912 32.7041 140.991 27.6406 140.991C27.0052 140.991 26.4889 140.922 26.0918 140.783C25.7145 140.644 25.4564 140.465 25.3174 140.247C25.1982 140.028 25.0692 139.8 24.9302 139.562C24.811 139.323 24.6919 139.095 24.5728 138.876C24.4735 138.658 24.2451 138.479 23.8877 138.34C23.5501 138.201 23.0934 138.132 22.5176 138.132C22.3587 138.132 22.1006 138.162 21.7432 138.221C21.4056 138.281 20.9985 138.38 20.522 138.519C20.0653 138.638 19.6681 138.837 19.3306 139.115C18.993 139.373 18.8242 139.681 18.8242 140.038C18.8242 140.475 19.0426 140.872 19.4795 141.229C19.9362 141.587 20.4128 141.845 20.9092 142.004C21.4056 142.163 22.0212 142.341 22.7559 142.54C23.4906 142.719 23.9473 142.838 24.126 142.897C28.4548 143.99 31.0361 144.665 31.8701 144.923C36.2188 146.293 39.2965 148.09 41.1035 150.314C42.7715 152.379 43.6055 154.97 43.6055 158.088C43.6055 159.974 43.3573 161.692 42.8608 163.241C42.3843 164.79 41.7489 166.1 40.9546 167.172C40.1603 168.245 39.1675 169.198 37.9761 170.032C36.7847 170.866 35.5734 171.531 34.3423 172.027C33.131 172.524 31.751 172.941 30.2021 173.278C28.6533 173.616 27.2236 173.854 25.9131 173.993C24.6224 174.152 23.2126 174.271 21.6836 174.351ZM43.7246 136.881C43.7246 136.523 43.7445 135.997 43.7842 135.302C43.8239 134.587 43.8438 134.101 43.8438 133.843C43.8438 133.743 43.8239 133.386 43.7842 132.771C43.7445 132.155 43.7246 131.619 43.7246 131.162C43.7246 129.057 43.9232 128.005 44.3203 128.005C44.4792 128.005 44.6182 128.025 44.7373 128.064C48.8874 128.064 55.033 128.015 63.1743 127.916C71.3354 127.816 77.4414 127.767 81.4922 127.767C82.5049 127.767 83.1403 127.856 83.3984 128.035C83.6764 128.213 83.8154 128.561 83.8154 129.077V129.911C83.8154 130.944 83.8254 132.473 83.8452 134.498C83.8651 136.504 83.875 138.033 83.875 139.085C83.875 140.118 83.597 140.634 83.041 140.634C81.929 140.634 80.271 140.614 78.0669 140.574C75.8628 140.535 74.2048 140.515 73.0928 140.515V172.444C72.9538 173.04 72.6162 173.358 72.0801 173.397C71.3851 173.397 70.3724 173.388 69.042 173.368C67.7116 173.348 66.6989 173.338 66.0039 173.338C65.9642 173.338 65.9245 173.358 65.8848 173.397C65.0111 173.397 63.7799 173.388 62.1914 173.368C60.6227 173.348 59.4512 173.338 58.6768 173.338H56.8896C56.4925 173.378 55.9167 173.397 55.1621 173.397L53.9707 171.968C53.9707 168.95 54.07 164.462 54.2686 158.505C54.4671 152.548 54.5664 148.06 54.5664 145.042C54.5664 144.903 54.5565 144.675 54.5366 144.357C54.5366 144.039 54.5366 143.781 54.5366 143.583C54.5366 143.384 54.5168 143.136 54.4771 142.838C54.4572 142.54 54.4076 142.302 54.3281 142.123C54.2686 141.924 54.1891 141.736 54.0898 141.557C53.9906 141.359 53.8516 141.22 53.6729 141.14C53.514 141.041 53.3154 140.991 53.0771 140.991H44.5586C44.0026 140.832 43.7246 139.462 43.7246 136.881ZM86.1982 171.491V170.359C86.1982 166.964 86.238 161.95 86.3174 155.318C86.3968 148.686 86.4365 143.672 86.4365 140.276V127.945H121.106V137.715C121.106 137.774 121.106 137.923 121.106 138.162C121.106 138.4 121.106 138.559 121.106 138.638C121.106 138.718 121.097 138.867 121.077 139.085C121.057 139.284 121.017 139.423 120.958 139.502C120.918 139.581 120.848 139.701 120.749 139.859C120.67 139.998 120.57 140.098 120.451 140.157C120.332 140.217 120.173 140.276 119.975 140.336C119.776 140.376 119.558 140.396 119.319 140.396H118.485C113.342 140.396 108.656 140.316 104.427 140.157C104.387 140.475 104.318 140.971 104.218 141.646C104.139 142.302 104.069 142.888 104.01 143.404C103.97 143.9 103.95 144.387 103.95 144.863H118.128C118.724 144.863 119.121 144.943 119.319 145.102C119.518 145.26 119.617 145.519 119.617 145.876C119.617 145.975 119.607 146.134 119.587 146.353C119.568 146.571 119.558 146.73 119.558 146.829C119.558 147.782 119.587 149.192 119.647 151.059C119.707 152.925 119.736 154.335 119.736 155.288C119.677 155.685 119.518 155.884 119.26 155.884C119.141 155.884 119.041 155.844 118.962 155.765C112.687 156.082 108.041 156.241 105.022 156.241H104.248V160.53C106.015 160.53 108.567 160.451 111.903 160.292C115.259 160.133 117.771 160.054 119.438 160.054C120.749 160.054 121.504 160.332 121.702 160.888V163.151C121.702 164.104 121.722 165.514 121.762 167.381C121.801 169.247 121.821 170.657 121.821 171.61C121.821 172.603 121.424 173.1 120.63 173.1C119.597 173.1 118.009 173.09 115.864 173.07C113.72 173.05 112.091 173.04 110.979 173.04C108.12 173.04 104.03 173.11 98.708 173.249C93.3864 173.407 89.5342 173.497 87.1514 173.517L86.3174 172.563C86.238 172.007 86.1982 171.65 86.1982 171.491ZM125.455 168.513V128.839C125.455 128.7 125.515 128.581 125.634 128.481C125.773 128.382 125.981 128.313 126.259 128.273C126.537 128.233 126.776 128.203 126.974 128.184C127.193 128.164 127.49 128.154 127.868 128.154C128.265 128.134 128.533 128.124 128.672 128.124H152.857C154.843 128.124 156.72 128.442 158.487 129.077C160.254 129.693 161.823 130.596 163.193 131.788C164.563 132.979 165.645 134.518 166.439 136.404C167.234 138.291 167.631 140.415 167.631 142.778C167.631 144.526 167.422 146.124 167.005 147.574C166.608 149.023 166.072 150.264 165.397 151.297C164.742 152.31 163.928 153.223 162.955 154.037C162.001 154.851 161.019 155.507 160.006 156.003C159.013 156.499 157.911 156.926 156.7 157.284C155.488 157.621 154.367 157.869 153.334 158.028C152.321 158.187 151.249 158.306 150.117 158.386H144.398C144.24 161.503 144.16 164.998 144.16 168.87V172.206C144.101 172.921 143.763 173.278 143.147 173.278H126.229C125.713 171.908 125.455 170.32 125.455 168.513ZM142.254 147.663L143.207 148.974C144.021 148.974 144.796 148.914 145.53 148.795C146.285 148.676 147.02 148.467 147.734 148.169C148.449 147.872 149.065 147.494 149.581 147.038C150.097 146.561 150.514 145.965 150.832 145.25C151.15 144.516 151.309 143.692 151.309 142.778C151.309 142.083 151.209 141.468 151.011 140.932C150.832 140.376 150.604 139.929 150.326 139.591C150.068 139.234 149.7 138.926 149.224 138.668C148.767 138.41 148.33 138.221 147.913 138.102C147.516 137.963 147 137.864 146.364 137.804C145.749 137.725 145.232 137.685 144.815 137.685C144.418 137.665 143.902 137.655 143.267 137.655C142.591 137.973 142.254 141.309 142.254 147.663ZM170.848 132.771C170.848 129.534 171.185 127.727 171.86 127.35C172.059 127.389 172.337 127.409 172.694 127.409H173.647C174.263 127.409 175.276 127.389 176.686 127.35C178.095 127.31 179.168 127.29 179.902 127.29C182.722 127.29 184.996 127.409 186.723 127.647C188.471 127.866 189.453 128.283 189.672 128.898L189.314 159.637H189.97C191.558 159.557 192.67 159.528 193.306 159.547C193.941 159.547 195.103 159.587 196.791 159.667C198.498 159.726 200.136 159.756 201.705 159.756C202.996 159.756 203.949 159.835 204.564 159.994C205.2 160.133 205.518 160.431 205.518 160.888V172.325C205.259 173.04 200.831 173.397 192.233 173.397H171.622C171.146 172.702 170.907 171.59 170.907 170.062V161.603C170.907 159.12 170.927 155.447 170.967 150.582C171.007 145.717 171.026 142.044 171.026 139.562C171.026 139.105 170.997 138.092 170.937 136.523C170.877 134.955 170.848 133.704 170.848 132.771ZM245.579 129.018C244.328 131.52 241.985 136.017 238.549 142.51C235.134 148.984 232.553 154.037 230.805 157.671V172.563C230.706 172.901 230.577 173.139 230.418 173.278C230.259 173.437 229.991 173.517 229.614 173.517C227.747 173.517 224.967 173.536 221.274 173.576C217.6 173.616 214.781 173.636 212.815 173.636C212.1 172.921 211.743 172.087 211.743 171.134C211.822 170.697 211.872 170.201 211.892 169.645C211.911 169.089 211.911 168.384 211.892 167.53C211.872 166.676 211.862 166.13 211.862 165.892V163.747C211.862 159.001 210.869 154.732 208.883 150.939C208.585 150.324 208.268 149.679 207.93 149.003C207.612 148.328 207.305 147.673 207.007 147.038C206.709 146.402 206.401 145.757 206.083 145.102C205.766 144.446 205.448 143.791 205.13 143.136C204.833 142.48 204.535 141.835 204.237 141.2C203.939 140.564 203.621 139.909 203.284 139.234C202.966 138.559 202.648 137.913 202.331 137.298L197.237 128.75C197.237 128.491 197.446 128.253 197.863 128.035C198.28 127.816 198.697 127.707 199.114 127.707H206.62C207.652 127.707 209.201 127.717 211.266 127.737C213.351 127.757 214.9 127.767 215.913 127.767C216.191 127.806 216.498 128.094 216.836 128.63C217.174 129.167 217.521 129.891 217.878 130.805C218.256 131.718 218.623 132.691 218.98 133.724C219.338 134.736 219.695 135.858 220.053 137.089C220.41 138.32 220.718 139.403 220.976 140.336C221.254 141.269 221.522 142.222 221.78 143.195C222.058 144.168 222.237 144.804 222.316 145.102L227.767 127.647H244.566C244.844 127.687 245.052 127.806 245.191 128.005C245.33 128.184 245.459 128.521 245.579 129.018Z" fill="#D7F4FF"/>
<path d="M162.999 67.495C170.128 58.0829 173.812 46.2443 173.993 34.437C174.081 28.6146 173.318 22.6734 170.829 17.4076C166.113 7.41392 154.944 0.866098 143.918 1.62282C132.893 2.37954 122.724 10.397 119.416 20.9348C113.581 14.312 108.44 7.01994 100.129 4.05559C92.8491 1.46023 83.2369 2.37328 76.4264 6.0318C69.6222 9.69033 64.494 16.6697 62.7492 24.1993C61.4421 29.8716 61.9987 35.8253 63.2432 41.5101C67.1144 59.1023 77.796 75.106 92.5615 85.4249C96.5139 82.1542 97.0142 82.3293 99.2281 80.4969C102.549 77.7514 104.144 76.5382 103.781 73.6113C103.581 71.9791 102.443 70.6157 100.904 70.0341C95.9886 68.183 91.0668 65.1561 88.3088 60.5595C86.0637 56.8134 84.519 51.9166 86.5452 48.0517C89.1218 43.1424 95.8948 39.4339 101.286 38.1456C116.733 34.4558 133.737 33.9679 146.307 35.4313C147.489 35.5689 147.808 37.0636 146.689 37.4701L122.324 46.3694C121.561 46.6508 120.91 47.2387 120.673 48.0204C120.091 49.9216 122.355 51.0723 124.15 51.5789C138.084 55.4688 151.592 60.8472 162.999 67.495Z" fill="#F00381" stroke="#F00381" stroke-width="3.12695" stroke-miterlimit="10"/>
<path d="M104.404 96.782C103.903 96.2442 104.272 95.3374 104.904 94.9622C108.625 92.7546 112.115 90.1529 115.292 87.2136C117.868 84.8246 120.389 81.8603 120.42 78.3456C120.451 75.1436 118.356 72.2731 115.892 70.2281C110.351 65.6314 102.953 64.1305 96.4112 61.1287C94.8415 60.4095 93.2968 59.5839 91.9772 58.4832C88.7689 55.8066 87.7933 51.1599 90.1385 47.7015C90.6263 46.9761 91.233 46.3444 91.9397 45.8566C95.1917 43.6115 98.6876 42.048 100.032 41.6165C110.051 38.402 118.725 37.6578 128.394 37.4827C136.949 37.3326 150.657 35.569 128.706 40.2657C122.784 41.5352 117.08 42.492 112.434 46.4883C111.971 46.8885 111.608 47.4013 111.377 47.9704C110.576 49.9717 111.564 51.1724 113.009 52.2606C123.29 60.0217 149.413 64.9498 157.918 70.1843C161.214 72.2168 159.525 74.5182 156.361 77.6827C149.944 84.0992 138.794 95.9878 127.168 103.011C125.511 104.012 124.841 105.262 122.915 105.469C120.958 105.681 117.474 104.612 115.654 103.861C111.033 101.973 107.112 99.6651 104.404 96.782Z" fill="#D7F4FF"/>
</svg>
